<svg width="26" height="17" viewBox="0 0 26 17" fill="none" xmlns="http://www.w3.org/2000/svg">
<path d="M7.70039 0C8.47962 0 9.19004 0.067579 9.83177 0.202993C10.4735 0.338279 11.0235 0.560215 11.4818 0.868032C11.9401 1.17623 12.2954 1.58593 12.5475 2.09712C12.7996 2.60832 12.9257 3.23957 12.9257 3.99113C12.9257 4.80297 12.7385 5.4794 12.3642 6.02042C11.9897 6.56156 11.436 7.00492 10.7027 7.35075C11.711 7.63643 12.4635 8.13649 12.9602 8.85016C13.4563 9.56435 13.7052 10.4251 13.7052 11.432C13.7052 12.2437 13.5448 12.9466 13.2237 13.5405C12.9031 14.1345 12.4712 14.6192 11.9291 14.9945C11.3866 15.3705 10.7678 15.6484 10.0727 15.8291C9.37327 16.0098 8.65301 16.1007 7.92986 16.0994H0V0H7.70039ZM7.24208 6.51664C7.88381 6.51664 8.4108 6.36638 8.82345 6.0656C9.23596 5.76508 9.44215 5.27641 9.44215 4.59998C9.44215 4.22433 9.37347 3.916 9.23596 3.6755C9.09846 3.43514 8.91516 3.24686 8.68594 3.11183C8.45673 2.97642 8.19316 2.88286 7.89526 2.82987C7.58884 2.77663 7.27823 2.75025 6.96707 2.75103H3.59814V6.51677H7.24208V6.51664ZM7.44827 13.3485C7.79951 13.3485 8.13579 13.3146 8.45659 13.247C8.7774 13.1793 9.05995 13.0666 9.30465 12.9086C9.54883 12.7511 9.7437 12.5367 9.88901 12.266C10.0341 11.9955 10.1067 11.6498 10.1067 11.2287C10.1067 10.4023 9.86963 9.81227 9.39623 9.45888C8.92245 9.10563 8.29607 8.92888 7.51696 8.92888H3.59814V13.3483L7.44827 13.3485ZM18.2332 13.0104C18.7221 13.4768 19.425 13.7093 20.3417 13.7093C20.9984 13.7093 21.5639 13.5481 22.0374 13.2246C22.5111 12.9018 22.8014 12.5596 22.9084 12.1986H25.7731C25.3149 13.5966 24.6118 14.5964 23.6647 15.1975C22.7171 15.7989 21.5712 16.0994 20.2268 16.0994C19.2949 16.0994 18.4544 15.9529 17.7058 15.6596C16.957 15.3667 16.3228 14.9494 15.8038 14.4083C15.2842 13.8673 14.8831 13.2213 14.6005 12.4694C14.3176 11.7179 14.1766 10.891 14.1766 9.98902C14.1766 9.11741 14.3214 8.30569 14.612 7.554C14.902 6.80257 15.3144 6.15238 15.8497 5.60343C16.3841 5.05499 17.0222 4.62276 17.7633 4.30701C18.5042 3.99126 19.3254 3.83357 20.227 3.83357C21.2354 3.83357 22.1138 4.02517 22.8627 4.40851C23.6111 4.79171 24.2262 5.30713 24.7076 5.95297C25.1888 6.59945 25.5362 7.33616 25.7506 8.1626C25.9644 8.98954 26.0405 9.85374 25.9798 10.7557H17.4313C17.477 11.7927 17.7439 12.5446 18.2332 13.0104ZM21.9115 6.87732C21.522 6.45661 20.9297 6.24594 20.1355 6.24594C19.6159 6.24594 19.1844 6.33259 18.8407 6.50525C18.4969 6.67842 18.2218 6.89216 18.0154 7.14789C17.8094 7.40361 17.6639 7.67431 17.5802 7.9596C17.496 8.24528 17.4463 8.50088 17.4311 8.72627H22.7251C22.5723 7.91442 22.3012 7.29828 21.9115 6.87732ZM16.8753 0.817476H23.4899V2.62189H16.8753V0.817476Z" fill="#03045E"/>
</svg>
